<svg xmlns="http://www.w3.org/2000/svg" width="12.041" height="7.247" viewBox="0 0 12.041 7.247">
  <g id="down-arrow" transform="translate(12.041 7.039) rotate(179)">
    <g id="Group_55" data-name="Group 55" transform="translate(0 0)">
      <path id="Path_6" data-name="Path 6" d="M11.729.588,11.339.2a.654.654,0,0,0-.922,0L5.963,4.649,1.5.19a.654.654,0,0,0-.922,0L.191.581a.653.653,0,0,0,0,.922L5.5,6.831a.666.666,0,0,0,.462.209h0a.666.666,0,0,0,.461-.209l5.3-5.314a.659.659,0,0,0,.191-.466A.652.652,0,0,0,11.729.588Z" transform="translate(0)" fill="#ff7465"/>
    </g>
  </g>
</svg>
