<svg xmlns="http://www.w3.org/2000/svg" width="15.038" height="19.474" viewBox="0 0 15.038 19.474">
  <g id="Group_116" data-name="Group 116" transform="translate(-691.29 121.164)">
    <path id="path52" d="M706.028-109.523a2.243,2.243,0,0,0-2.24,2.241,2.243,2.243,0,0,0,2.24,2.24,2.243,2.243,0,0,0,2.241-2.24,2.244,2.244,0,0,0-2.241-2.241" transform="translate(-7.219 -6.724)" fill="#040606"/>
    <path id="path54" d="M698.809-110.288a3.722,3.722,0,0,1-3.718-3.717,3.722,3.722,0,0,1,3.718-3.718,3.722,3.722,0,0,1,3.718,3.718A3.722,3.722,0,0,1,698.809-110.288Zm0-10.876a7.519,7.519,0,0,0-7.52,7.519c0,3.541,5.467,9.946,7.078,11.757a.591.591,0,0,0,.884,0c1.611-1.811,7.077-8.216,7.077-11.757a7.519,7.519,0,0,0-7.519-7.519" transform="translate(0 0)" fill="#040606"/>
  </g>
</svg>
